<?xml version="1.0" encoding="UTF-8"?>
<svg version="1.1" xmlns="http://www.w3.org/2000/svg" width="308" height="50">
<path d="M0 0 C6.93 0 13.86 0 21 0 C21 6.93 21 13.86 21 21 C17.7 21 14.4 21 11 21 C11 24.63 11 28.26 11 32 C4.07 32 -2.86 32 -10 32 C-10 24.74 -10 17.48 -10 10 C-6.7 10 -3.4 10 0 10 C0 6.7 0 3.4 0 0 Z " fill="#FDAC09" transform="translate(10,12)"/>
<path d="M0 0 C3.1875 2 3.1875 2 5 4 C4.75 5.875 4.75 5.875 4 8 C1.9375 9.25 1.9375 9.25 0 10 C-0.37125 9.505 -0.7425 9.01 -1.125 8.5 C-3.79160885 6.36671292 -5.67893663 6.64669539 -9 7 C-11.35639408 8.93889246 -11.35639408 8.93889246 -11.375 12.4375 C-11.33935099 15.97743216 -11.33935099 15.97743216 -9.3125 18 C-6.44360465 19.2406034 -4.94358324 18.89942821 -2 18 C-3.32 17.67 -4.64 17.34 -6 17 C-6 15.02 -6 13.04 -6 11 C-1.71 11 2.58 11 7 11 C7.30615641 18.96006656 7.30615641 18.96006656 5 22 C0.84147484 25.65138794 -2.43381237 26.64969603 -7.8203125 26.38671875 C-12.33091766 25.58645009 -15.02202415 23.17357102 -17.875 19.75 C-19.36637686 16.10441212 -19.68604454 12.84486501 -19 9 C-14.4781337 0.44075308 -9.30394417 -1.30750695 0 0 Z " fill="#FFAE07" transform="translate(84,14)"/>
<path d="M0 0 C5 0 5 0 6.80078125 1.4609375 C7.29964844 2.09257812 7.79851562 2.72421875 8.3125 3.375 C8.82425781 4.00148438 9.33601562 4.62796875 9.86328125 5.2734375 C11 7 11 7 11 9 C11.66 9 12.32 9 13 9 C13.99 10.485 13.99 10.485 15 12 C15.33 8.04 15.66 4.08 16 0 C17.98 0 19.96 0 22 0 C22 7.92 22 15.84 22 24 C20.02 24 18.04 24 16 24 C13.88943792 21.83593071 12.31235903 19.95202325 10.625 17.5 C10.17511719 16.87996094 9.72523438 16.25992187 9.26171875 15.62109375 C8.15696443 14.09324204 7.0760739 12.54818537 6 11 C5.67 15.29 5.34 19.58 5 24 C3.35 24 1.7 24 0 24 C0 16.08 0 8.16 0 0 Z " fill="#21298C" transform="translate(237,15)"/>
<path d="M0 0 C3.3 0 6.6 0 10 0 C10 3.63 10 7.26 10 11 C13.63 11 17.26 11 21 11 C21 14.63 21 18.26 21 22 C14.07 22 7.14 22 0 22 C0 14.74 0 7.48 0 0 Z " fill="#22298A" transform="translate(0,22)"/>
<path d="M0 0 C1.98 0 3.96 0 6 0 C6 2.97 6 5.94 6 9 C6.66 9 7.32 9 8 9 C8.268125 8.360625 8.53625 7.72125 8.8125 7.0625 C10 5 10 5 13 4 C14.20882096 1.99983534 14.20882096 1.99983534 15 0 C17.31 0 19.62 0 22 0 C22 0.66 22 1.32 22 2 C21.34 2 20.68 2 20 2 C20 2.66 20 3.32 20 4 C19.175 4.78375 18.35 5.5675 17.5 6.375 C14.54022989 8.87859195 14.54022989 8.87859195 15 13 C16.51854119 15.36128688 16.51854119 15.36128688 18.5 17.625 C22 21.80555556 22 21.80555556 22 24 C19.4375 24.5 19.4375 24.5 16 24 C13.34123873 21.58004962 11.16196571 18.86556402 9 16 C8.34 16.33 7.68 16.66 7 17 C6.59270772 19.32156597 6.25561323 21.6568787 6 24 C4.02 24 2.04 24 0 24 C0 16.08 0 8.16 0 0 Z " fill="#21288C" transform="translate(209,15)"/>
<path d="M0 0 C1.98 0 3.96 0 6 0 C6.33 2.97 6.66 5.94 7 9 C7.66 8.01 8.32 7.02 9 6 C9.66 6 10.32 6 11 6 C11 5.34 11 4.68 11 4 C11.66 4 12.32 4 13 4 C13 3.34 13 2.68 13 2 C13.66 2 14.32 2 15 2 C15 1.34 15 0.68 15 0 C17.31 0 19.62 0 22 0 C22 0.66 22 1.32 22 2 C21.34 2 20.68 2 20 2 C19.7525 2.5775 19.505 3.155 19.25 3.75 C17.83316683 6.3002997 16.12372463 8.01785701 14 10 C14.66 11.98 15.32 13.96 16 16 C16.66 16 17.32 16 18 16 C19.2890625 17.75 19.2890625 17.75 20.625 20 C21.07101562 20.7425 21.51703125 21.485 21.9765625 22.25 C22.48316406 23.11625 22.48316406 23.11625 23 24 C19.9375 24.5 19.9375 24.5 16 24 C13.28705144 21.61176729 11.13518274 18.90748288 9 16 C8.34 16.33 7.68 16.66 7 17 C6.59270772 19.32156597 6.25561323 21.6568787 6 24 C4.02 24 2.04 24 0 24 C0 16.08 0 8.16 0 0 Z " fill="#21298C" transform="translate(281,15)"/>
<path d="M0 0 C0.66 0 1.32 0 2 0 C3.8229962 3.39029827 5.6315081 6.78811748 7.4375 10.1875 C7.95376953 11.14720703 8.47003906 12.10691406 9.00195312 13.09570312 C9.49501953 14.02705078 9.98808594 14.95839844 10.49609375 15.91796875 C10.95169678 16.77156982 11.4072998 17.6251709 11.87670898 18.50463867 C13.00711031 21.01579537 13.57310835 23.28785751 14 26 C11.69 26 9.38 26 7 26 C6.67 24.68 6.34 23.36 6 22 C2.37 22 -1.26 22 -5 22 C-5.33 23.32 -5.66 24.64 -6 26 C-8.31 26 -10.62 26 -13 26 C-11.37514086 20.32692038 -8.70727378 15.36270674 -5.9375 10.1875 C-5.47794922 9.31673828 -5.01839844 8.44597656 -4.54492188 7.54882812 C-1.1468153 1.1468153 -1.1468153 1.1468153 0 0 Z M0 12 C-0.66 13.65 -1.32 15.3 -2 17 C-0.35 17 1.3 17 3 17 C2.34 15.35 1.68 13.7 1 12 C0.67 12 0.34 12 0 12 Z " fill="#FFAE07" transform="translate(48,14)"/>
<path d="M0 0 C4.62 0 9.24 0 14 0 C14 1.98 14 3.96 14 6 C11.36 6 8.72 6 6 6 C6 6.99 6 7.98 6 9 C8.97 9 11.94 9 15 9 C15 10.98 15 12.96 15 15 C12.03 15 9.06 15 6 15 C6 16.65 6 18.3 6 20 C9.3 20 12.6 20 16 20 C16 21.98 16 23.96 16 26 C10.72 26 5.44 26 0 26 C0 17.42 0 8.84 0 0 Z " fill="#FFAE08" transform="translate(137,14)"/>
<path d="M0 0 C5.94 0 11.88 0 18 0 C18 1.32 18 2.64 18 4 C14.04 4 10.08 4 6 4 C6 5.65 6 7.3 6 9 C9.63 9 13.26 9 17 9 C17 10.65 17 12.3 17 14 C13.37 14 9.74 14 6 14 C6 15.65 6 17.3 6 19 C10.29 19 14.58 19 19 19 C19 20.65 19 22.3 19 24 C12.73 24 6.46 24 0 24 C0 16.08 0 8.16 0 0 Z " fill="#21298A" transform="translate(183,15)"/>
<path d="M0 0 C1.98 0 3.96 0 6 0 C6 6.6 6 13.2 6 20 C9.3 20 12.6 20 16 20 C16 21.98 16 23.96 16 26 C10.72 26 5.44 26 0 26 C0 17.42 0 8.84 0 0 Z " fill="#FFAE08" transform="translate(114,14)"/>
<path d="M0 0 C7.26 0 14.52 0 22 0 C22 1.32 22 2.64 22 4 C19.36 4 16.72 4 14 4 C14 10.6 14 17.2 14 24 C12.02 24 10.04 24 8 24 C8 17.4 8 10.8 8 4 C5.36 4 2.72 4 0 4 C0 2.68 0 1.36 0 0 Z " fill="#22298A" transform="translate(156,15)"/>
<path d="M0 0 C1.98 0 3.96 0 6 0 C6 8.58 6 17.16 6 26 C4.02 26 2.04 26 0 26 C0 17.42 0 8.84 0 0 Z " fill="#FFAE08" transform="translate(99,14)"/>
<path d="M0 0 C1.98 0 3.96 0 6 0 C6 7.92 6 15.84 6 24 C4.02 24 2.04 24 0 24 C0 16.08 0 8.16 0 0 Z " fill="#21298A" transform="translate(267,15)"/>
</svg>
