<svg width="281" height="92" viewBox="0 0 281 92" fill="none" xmlns="http://www.w3.org/2000/svg">
<g clip-path="url(#clip0_26782_2965)">
<g filter="url(#filter0_d_26782_2965)">
<path d="M14.4053 29.7879L27.8331 33.6243L29.5658 27.5578C29.9006 26.3831 31.1231 25.7018 32.2977 26.0355L45.1504 29.7071C46.3251 30.042 47.0064 31.2655 46.6716 32.4391L44.9378 38.5109L45.733 38.7373L53.9319 36.3955L52.1971 30.3248C51.8633 29.1501 52.5436 27.9266 53.7182 27.5928L66.571 23.9202C67.7456 23.5864 68.9691 24.2678 69.3029 25.4424L71.0356 31.5089L84.4634 27.6736C85.638 27.3388 86.8615 28.0202 87.1953 29.1948L93.6339 51.7325C93.9687 52.9071 93.2873 54.1306 92.1127 54.4644L86.0993 56.1833C85.8889 60.4247 82.9932 64.1218 78.8879 65.2943L53.1144 72.6577L52.6084 74.4286C52.2747 75.6033 51.0512 76.2846 49.8765 75.9498L19.9807 67.4096C15.8754 66.2361 12.9798 62.54 12.7693 58.2976L6.75593 56.5798C5.58131 56.246 4.90099 55.0225 5.23478 53.8479L11.6734 31.3102C12.0072 30.1355 13.2307 29.4542 14.4053 29.7879ZM64.0283 74.7156C62.5518 72.2155 66.3562 69.9694 67.8327 72.4674L72.3239 80.0785C73.8004 82.5776 69.9959 84.8237 68.5194 82.3257L64.0283 74.7156ZM75.262 74.857C72.612 73.675 74.4106 69.6462 77.0596 70.8283L86.2917 74.9453C88.9418 76.1284 87.1432 80.1561 84.4942 78.974L75.262 74.857ZM30.9509 19.3184C29.316 21.7155 25.6678 19.226 27.3027 16.8289L32.1691 9.71743C33.804 7.32143 37.4522 9.81097 35.8173 12.207L30.9509 19.3184ZM25.6051 20.7248C26.549 23.4769 22.364 24.9109 21.4211 22.1598L18.4266 13.4262C17.4827 10.6741 21.6677 9.24014 22.6106 11.9912L25.6051 20.7248ZM50.5813 65.4272L39.8397 62.4922C37.0429 61.7311 38.2005 57.477 40.9984 58.2391L51.7921 61.1879L53.4599 55.3488L42.9777 52.5712C40.1703 51.8324 41.2928 47.5624 44.1023 48.3012L54.6739 51.1022L56.0494 46.2846C51.2329 44.9081 46.4154 43.5315 41.599 42.1559C40.4243 41.8222 39.743 40.5986 40.0767 39.424L41.8116 33.3532L33.2119 30.8956L31.4781 36.9632C31.1443 38.1367 29.9208 38.8181 28.7462 38.4843L22.9561 36.8303L17.3912 56.3087C16.5547 59.2394 18.2597 62.3179 21.1915 63.1555L48.9634 71.0898C49.5024 69.2019 50.0413 67.314 50.5813 65.4272ZM53.782 41.0377L59.3883 42.6385C60.5629 42.9734 61.2443 44.1969 60.9094 45.3705L54.5452 67.6488L77.6772 61.0412C80.6089 60.2036 82.314 57.1241 81.4774 54.1934L75.9126 34.7149L70.1224 36.369C68.9478 36.7038 67.7243 36.0224 67.3905 34.8478L65.6578 28.7813L57.0571 31.2379L58.7919 37.3087C59.1257 38.4833 58.4443 39.7068 57.2697 40.0406L53.782 41.0377ZM83.5503 32.5337L80.1657 33.4999L85.3893 51.7867L88.7738 50.8194L83.5503 32.5337ZM18.703 35.6153L15.3184 34.648L10.0948 52.9348L13.4794 53.901L18.703 35.6153Z" fill="#3C56AF"/>
</g>
</g>
<g filter="url(#filter1_d_26782_2965)">
<path d="M273.25 63.5595C271.234 63.5595 269.698 61.9755 269.698 60.0075C269.698 57.8955 271.234 56.3595 273.25 56.3595C275.314 56.3595 276.85 57.8955 276.85 60.0075C276.85 61.9755 275.314 63.5595 273.25 63.5595Z" fill="#3C56AF"/>
</g>
<g filter="url(#filter2_d_26782_2965)">
<path d="M255.279 37.2075C261.519 37.2075 265.359 41.2875 265.359 47.2875V63.0795H259.215V48.4395C259.215 44.7915 256.959 42.6315 253.503 42.6315C250.191 42.6795 247.695 45.0315 247.647 47.8635V63.0795H241.551V37.7835H247.311V40.5675C249.039 38.5995 251.823 37.2075 255.279 37.2075Z" fill="#3C56AF"/>
</g>
<g filter="url(#filter3_d_26782_2965)">
<path d="M229.236 63.0795V29.7195H235.38V63.0795H229.236Z" fill="#3C56AF"/>
</g>
<g filter="url(#filter4_d_26782_2965)">
<path d="M214.386 63.6555C208.914 63.6555 204.93 61.4475 203.538 57.1755L208.866 55.1115C209.586 57.4635 211.554 58.8555 214.626 58.8555C217.074 58.8555 218.61 57.8475 218.61 56.0715C218.61 51.0795 204.738 53.3835 204.738 44.6955C204.738 40.0875 208.578 37.2075 214.53 37.2075C219.426 37.2075 222.978 39.2235 224.034 42.6795L218.706 44.7435C218.034 42.8235 216.546 41.9115 214.434 41.9115C212.178 41.9115 210.978 42.8715 210.978 44.4075C210.978 49.0155 224.85 46.3755 224.85 55.6395C224.85 60.6795 220.722 63.6555 214.386 63.6555Z" fill="#3C56AF"/>
</g>
<g filter="url(#filter5_d_26782_2965)">
<path d="M181.705 52.3755C182.521 56.1675 185.449 58.4715 189.241 58.4715C192.697 58.4715 194.521 57.1755 195.673 54.9195L200.473 57.9915C198.553 61.1115 195.193 63.7035 189.049 63.7035C180.985 63.7035 175.705 57.9915 175.705 50.4555C175.705 43.1115 181.417 37.2075 188.665 37.2075C196.633 37.2075 201.481 43.4475 201.481 49.9275C201.481 50.8875 201.433 51.8475 201.337 52.3755H181.705ZM181.705 48.1035H195.625C194.953 44.3115 192.361 42.0075 188.809 42.0075C185.257 42.0075 182.473 44.2155 181.705 48.1035Z" fill="#3C56AF"/>
</g>
<g filter="url(#filter6_d_26782_2965)">
<path d="M166.968 40.6155C168.696 38.5995 171.336 37.2075 174.504 37.2075V42.9195C170.088 42.9195 167.304 45.2715 167.304 48.6795V63.0795H161.208V37.7835H166.968V40.6155Z" fill="#3C56AF"/>
</g>
<g filter="url(#filter7_d_26782_2965)">
<path d="M137.268 52.3755C138.084 56.1675 141.012 58.4715 144.804 58.4715C148.26 58.4715 150.084 57.1755 151.236 54.9195L156.036 57.9915C154.116 61.1115 150.756 63.7035 144.612 63.7035C136.548 63.7035 131.268 57.9915 131.268 50.4555C131.268 43.1115 136.98 37.2075 144.228 37.2075C152.196 37.2075 157.044 43.4475 157.044 49.9275C157.044 50.8875 156.996 51.8475 156.9 52.3755H137.268ZM137.268 48.1035H151.188C150.516 44.3115 147.924 42.0075 144.372 42.0075C140.82 42.0075 138.036 44.2155 137.268 48.1035Z" fill="#3C56AF"/>
</g>
<g filter="url(#filter8_d_26782_2965)">
<path d="M122.293 45.3195C125.989 46.7595 128.149 49.7835 128.149 53.6715C128.149 59.3355 124.213 63.0795 117.301 63.0795H103.189V29.7195H117.733C123.541 29.7195 126.997 32.9355 126.997 37.8315C126.997 41.0955 125.173 43.8315 122.293 45.3195ZM120.901 39.0315C120.901 36.4395 119.269 34.6635 116.005 34.6635H109.237V43.3995H115.909C118.789 43.3995 120.901 41.7195 120.901 39.0315ZM116.437 58.1355C119.989 58.1355 122.053 56.3595 122.053 53.2395C122.053 50.1195 119.797 48.3435 116.389 48.3435H109.237V58.1355H116.437Z" fill="#3C56AF"/>
</g>
<defs>
<filter id="filter0_d_26782_2965" x="1.1499" y="8.74402" width="96.5693" height="82.6709" filterUnits="userSpaceOnUse" color-interpolation-filters="sRGB">
<feFlood flood-opacity="0" result="BackgroundImageFix"/>
<feColorMatrix in="SourceAlpha" type="matrix" values="0 0 0 0 0 0 0 0 0 0 0 0 0 0 0 0 0 0 127 0" result="hardAlpha"/>
<feOffset dy="4"/>
<feGaussianBlur stdDeviation="2"/>
<feComposite in2="hardAlpha" operator="out"/>
<feColorMatrix type="matrix" values="0 0 0 0 0 0 0 0 0 0 0 0 0 0 0 0 0 0 0.25 0"/>
<feBlend mode="normal" in2="BackgroundImageFix" result="effect1_dropShadow_26782_2965"/>
<feBlend mode="normal" in="SourceGraphic" in2="effect1_dropShadow_26782_2965" result="shape"/>
</filter>
<filter id="filter1_d_26782_2965" x="265.698" y="56.3595" width="15.1521" height="15.2" filterUnits="userSpaceOnUse" color-interpolation-filters="sRGB">
<feFlood flood-opacity="0" result="BackgroundImageFix"/>
<feColorMatrix in="SourceAlpha" type="matrix" values="0 0 0 0 0 0 0 0 0 0 0 0 0 0 0 0 0 0 127 0" result="hardAlpha"/>
<feOffset dy="4"/>
<feGaussianBlur stdDeviation="2"/>
<feComposite in2="hardAlpha" operator="out"/>
<feColorMatrix type="matrix" values="0 0 0 0 0 0 0 0 0 0 0 0 0 0 0 0 0 0 0.25 0"/>
<feBlend mode="normal" in2="BackgroundImageFix" result="effect1_dropShadow_26782_2965"/>
<feBlend mode="normal" in="SourceGraphic" in2="effect1_dropShadow_26782_2965" result="shape"/>
</filter>
<filter id="filter2_d_26782_2965" x="237.551" y="37.2075" width="31.8081" height="33.872" filterUnits="userSpaceOnUse" color-interpolation-filters="sRGB">
<feFlood flood-opacity="0" result="BackgroundImageFix"/>
<feColorMatrix in="SourceAlpha" type="matrix" values="0 0 0 0 0 0 0 0 0 0 0 0 0 0 0 0 0 0 127 0" result="hardAlpha"/>
<feOffset dy="4"/>
<feGaussianBlur stdDeviation="2"/>
<feComposite in2="hardAlpha" operator="out"/>
<feColorMatrix type="matrix" values="0 0 0 0 0 0 0 0 0 0 0 0 0 0 0 0 0 0 0.25 0"/>
<feBlend mode="normal" in2="BackgroundImageFix" result="effect1_dropShadow_26782_2965"/>
<feBlend mode="normal" in="SourceGraphic" in2="effect1_dropShadow_26782_2965" result="shape"/>
</filter>
<filter id="filter3_d_26782_2965" x="225.236" y="29.7195" width="14.144" height="41.36" filterUnits="userSpaceOnUse" color-interpolation-filters="sRGB">
<feFlood flood-opacity="0" result="BackgroundImageFix"/>
<feColorMatrix in="SourceAlpha" type="matrix" values="0 0 0 0 0 0 0 0 0 0 0 0 0 0 0 0 0 0 127 0" result="hardAlpha"/>
<feOffset dy="4"/>
<feGaussianBlur stdDeviation="2"/>
<feComposite in2="hardAlpha" operator="out"/>
<feColorMatrix type="matrix" values="0 0 0 0 0 0 0 0 0 0 0 0 0 0 0 0 0 0 0.25 0"/>
<feBlend mode="normal" in2="BackgroundImageFix" result="effect1_dropShadow_26782_2965"/>
<feBlend mode="normal" in="SourceGraphic" in2="effect1_dropShadow_26782_2965" result="shape"/>
</filter>
<filter id="filter4_d_26782_2965" x="199.538" y="37.2075" width="29.312" height="34.448" filterUnits="userSpaceOnUse" color-interpolation-filters="sRGB">
<feFlood flood-opacity="0" result="BackgroundImageFix"/>
<feColorMatrix in="SourceAlpha" type="matrix" values="0 0 0 0 0 0 0 0 0 0 0 0 0 0 0 0 0 0 127 0" result="hardAlpha"/>
<feOffset dy="4"/>
<feGaussianBlur stdDeviation="2"/>
<feComposite in2="hardAlpha" operator="out"/>
<feColorMatrix type="matrix" values="0 0 0 0 0 0 0 0 0 0 0 0 0 0 0 0 0 0 0.25 0"/>
<feBlend mode="normal" in2="BackgroundImageFix" result="effect1_dropShadow_26782_2965"/>
<feBlend mode="normal" in="SourceGraphic" in2="effect1_dropShadow_26782_2965" result="shape"/>
</filter>
<filter id="filter5_d_26782_2965" x="171.705" y="37.2075" width="33.7759" height="34.496" filterUnits="userSpaceOnUse" color-interpolation-filters="sRGB">
<feFlood flood-opacity="0" result="BackgroundImageFix"/>
<feColorMatrix in="SourceAlpha" type="matrix" values="0 0 0 0 0 0 0 0 0 0 0 0 0 0 0 0 0 0 127 0" result="hardAlpha"/>
<feOffset dy="4"/>
<feGaussianBlur stdDeviation="2"/>
<feComposite in2="hardAlpha" operator="out"/>
<feColorMatrix type="matrix" values="0 0 0 0 0 0 0 0 0 0 0 0 0 0 0 0 0 0 0.25 0"/>
<feBlend mode="normal" in2="BackgroundImageFix" result="effect1_dropShadow_26782_2965"/>
<feBlend mode="normal" in="SourceGraphic" in2="effect1_dropShadow_26782_2965" result="shape"/>
</filter>
<filter id="filter6_d_26782_2965" x="157.208" y="37.2075" width="21.2959" height="33.872" filterUnits="userSpaceOnUse" color-interpolation-filters="sRGB">
<feFlood flood-opacity="0" result="BackgroundImageFix"/>
<feColorMatrix in="SourceAlpha" type="matrix" values="0 0 0 0 0 0 0 0 0 0 0 0 0 0 0 0 0 0 127 0" result="hardAlpha"/>
<feOffset dy="4"/>
<feGaussianBlur stdDeviation="2"/>
<feComposite in2="hardAlpha" operator="out"/>
<feColorMatrix type="matrix" values="0 0 0 0 0 0 0 0 0 0 0 0 0 0 0 0 0 0 0.25 0"/>
<feBlend mode="normal" in2="BackgroundImageFix" result="effect1_dropShadow_26782_2965"/>
<feBlend mode="normal" in="SourceGraphic" in2="effect1_dropShadow_26782_2965" result="shape"/>
</filter>
<filter id="filter7_d_26782_2965" x="127.268" y="37.2075" width="33.7761" height="34.496" filterUnits="userSpaceOnUse" color-interpolation-filters="sRGB">
<feFlood flood-opacity="0" result="BackgroundImageFix"/>
<feColorMatrix in="SourceAlpha" type="matrix" values="0 0 0 0 0 0 0 0 0 0 0 0 0 0 0 0 0 0 127 0" result="hardAlpha"/>
<feOffset dy="4"/>
<feGaussianBlur stdDeviation="2"/>
<feComposite in2="hardAlpha" operator="out"/>
<feColorMatrix type="matrix" values="0 0 0 0 0 0 0 0 0 0 0 0 0 0 0 0 0 0 0.25 0"/>
<feBlend mode="normal" in2="BackgroundImageFix" result="effect1_dropShadow_26782_2965"/>
<feBlend mode="normal" in="SourceGraphic" in2="effect1_dropShadow_26782_2965" result="shape"/>
</filter>
<filter id="filter8_d_26782_2965" x="99.1887" y="29.7195" width="32.96" height="41.36" filterUnits="userSpaceOnUse" color-interpolation-filters="sRGB">
<feFlood flood-opacity="0" result="BackgroundImageFix"/>
<feColorMatrix in="SourceAlpha" type="matrix" values="0 0 0 0 0 0 0 0 0 0 0 0 0 0 0 0 0 0 127 0" result="hardAlpha"/>
<feOffset dy="4"/>
<feGaussianBlur stdDeviation="2"/>
<feComposite in2="hardAlpha" operator="out"/>
<feColorMatrix type="matrix" values="0 0 0 0 0 0 0 0 0 0 0 0 0 0 0 0 0 0 0.25 0"/>
<feBlend mode="normal" in2="BackgroundImageFix" result="effect1_dropShadow_26782_2965"/>
<feBlend mode="normal" in="SourceGraphic" in2="effect1_dropShadow_26782_2965" result="shape"/>
</filter>
<clipPath id="clip0_26782_2965">
<rect width="90.5692" height="90.6709" fill="white" transform="translate(4.1499 0.744019)"/>
</clipPath>
</defs>
</svg>
