<svg width="150" height="150" viewBox="0 0 150 150" fill="none" xmlns="http://www.w3.org/2000/svg">
<g clip-path="url(#clip0_26782_2952)">
<g filter="url(#filter0_d_26782_2952)">
<path d="M16.6183 47.8474L38.998 54.2414L41.8858 44.1305C42.4439 42.1728 44.4813 41.0371 46.439 41.5935L67.8602 47.7128C69.8179 48.2709 70.9535 50.3101 70.3954 52.266L67.5059 62.3857L68.8311 62.7631L82.4959 58.8601L79.6046 48.7421C79.0483 46.7844 80.1821 44.7452 82.1398 44.1889L103.561 38.0678C105.519 37.5115 107.558 38.6472 108.114 40.6049L111.002 50.7158L133.382 44.3236C135.339 43.7655 137.379 44.9011 137.935 46.8588L148.666 84.4217C149.224 86.3794 148.088 88.4186 146.131 88.9749L136.108 91.8397C135.758 98.9087 130.932 105.071 124.089 107.025L81.1335 119.297L80.2902 122.249C79.7339 124.206 77.6947 125.342 75.737 124.784L25.9107 110.55C19.0685 108.594 14.2425 102.434 13.8917 95.3636L3.86934 92.5005C1.91165 91.9442 0.777778 89.905 1.33408 87.9474L12.0651 50.3845C12.6214 48.4268 14.6606 47.2911 16.6183 47.8474ZM99.3232 122.727C96.8624 118.56 103.203 114.816 105.664 118.98L113.149 131.665C115.61 135.83 109.269 139.574 106.809 135.41L99.3232 122.727ZM118.046 122.963C113.629 120.993 116.627 114.278 121.042 116.248L136.429 123.11C140.846 125.082 137.848 131.794 133.433 129.824L118.046 122.963ZM44.1943 30.3983C41.4694 34.3934 35.3891 30.2441 38.1139 26.249L46.2246 14.3966C48.9494 10.4032 55.0298 14.5525 52.305 18.5458L44.1943 30.3983ZM35.2845 32.7422C36.8578 37.329 29.8827 39.719 28.3113 35.1339L23.3205 20.5779C21.7472 15.9911 28.7223 13.6011 30.2938 18.1862L35.2845 32.7422ZM76.9116 107.246L59.0089 102.355C54.3477 101.086 56.277 93.9958 60.9401 95.2661L78.9296 100.181L81.7093 90.449L64.2389 85.8196C59.5599 84.5883 61.4308 77.4715 66.1133 78.7028L83.7326 83.3711L86.0251 75.3419C77.9977 73.0476 69.9685 70.7533 61.941 68.4608C59.9834 67.9045 58.8477 65.8653 59.404 63.9076L62.2954 53.7896L47.9626 49.6935L45.073 59.8062C44.5167 61.7621 42.4775 62.8977 40.5198 62.3414L30.8695 59.5847L21.5949 92.0488C20.2006 96.9333 23.0423 102.064 27.9286 103.46L74.2152 116.684C75.1134 113.537 76.0116 110.391 76.9116 107.246ZM82.2461 66.597L91.5899 69.2651C93.5476 69.8232 94.6832 71.8624 94.1252 73.8183L83.5182 110.949L122.071 99.9362C126.958 98.5402 129.799 93.4076 128.405 88.5231L119.13 56.0591L109.48 58.8158C107.523 59.3739 105.483 58.2383 104.927 56.2806L102.039 46.1697L87.7046 50.264L90.596 60.382C91.1523 62.3397 90.0167 64.3789 88.059 64.9352L82.2461 66.597ZM131.86 52.4237L126.219 54.0341L134.925 84.5121L140.566 82.8999L131.86 52.4237ZM23.7811 57.5597L18.1401 55.9475L9.43414 86.4255L15.0751 88.0359L23.7811 57.5597Z" fill="#3C56AF"/>
</g>
</g>
<defs>
<filter id="filter0_d_26782_2952" x="-2.80737" y="12.7742" width="155.615" height="132.452" filterUnits="userSpaceOnUse" color-interpolation-filters="sRGB">
<feFlood flood-opacity="0" result="BackgroundImageFix"/>
<feColorMatrix in="SourceAlpha" type="matrix" values="0 0 0 0 0 0 0 0 0 0 0 0 0 0 0 0 0 0 127 0" result="hardAlpha"/>
<feOffset dy="4"/>
<feGaussianBlur stdDeviation="2"/>
<feComposite in2="hardAlpha" operator="out"/>
<feColorMatrix type="matrix" values="0 0 0 0 0 0 0 0 0 0 0 0 0 0 0 0 0 0 0.25 0"/>
<feBlend mode="normal" in2="BackgroundImageFix" result="effect1_dropShadow_26782_2952"/>
<feBlend mode="normal" in="SourceGraphic" in2="effect1_dropShadow_26782_2952" result="shape"/>
</filter>
<clipPath id="clip0_26782_2952">
<rect width="150" height="150" fill="white"/>
</clipPath>
</defs>
</svg>
