<svg width="20" height="20" viewBox="0 0 20 20" fill="none" xmlns="http://www.w3.org/2000/svg">
<rect width="20" height="20" rx="10" fill="white"/>
<path d="M3.67198 6.80158L6.09771 7.49462L6.41072 6.3987C6.47121 6.1865 6.69205 6.06341 6.90424 6.12371L9.22608 6.78698C9.43828 6.84747 9.56137 7.0685 9.50088 7.2805L9.18768 8.37738L9.33132 8.41828L10.8124 7.99524L10.4991 6.89855C10.4388 6.68636 10.5617 6.46533 10.7738 6.40503L13.0957 5.74157C13.3079 5.68127 13.5289 5.80436 13.5892 6.01656L13.9022 7.11247L16.328 6.41963C16.5401 6.35914 16.7612 6.48223 16.8215 6.69442L17.9846 10.7659C18.0451 10.9781 17.922 11.1991 17.7098 11.2594L16.6235 11.5699C16.5855 12.3361 16.0624 13.004 15.3208 13.2158L10.6648 14.546L10.5734 14.8659C10.5131 15.0781 10.292 15.2012 10.0799 15.1407L4.67918 13.5979C3.93756 13.3859 3.41447 12.7182 3.37645 11.9518L2.29013 11.6415C2.07793 11.5812 1.95503 11.3602 2.01533 11.148L3.17846 7.07656C3.23876 6.86437 3.45979 6.74128 3.67198 6.80158ZM12.6364 14.9178C12.3696 14.4661 13.0569 14.0603 13.3236 14.5116L14.135 15.8865C14.4017 16.338 13.7144 16.7438 13.4477 16.2925L12.6364 14.9178ZM14.6657 14.9433C14.187 14.7298 14.5119 14.002 14.9905 14.2155L16.6582 14.9592C17.137 15.173 16.8121 15.9006 16.3335 15.687L14.6657 14.9433ZM6.66094 4.91027C6.36559 5.3433 5.70655 4.89356 6.00189 4.46053L6.881 3.17585C7.17635 2.74301 7.8354 3.19275 7.54005 3.62558L6.66094 4.91027ZM5.69522 5.16432C5.86574 5.66149 5.10971 5.92054 4.93938 5.42356L4.39843 3.84584C4.22791 3.34867 4.98393 3.08962 5.15427 3.5866L5.69522 5.16432ZM10.2072 13.2398L8.2667 12.7096C7.76147 12.5721 7.97059 11.8036 8.47601 11.9413L10.4259 12.474L10.7272 11.4191L8.83357 10.9174C8.32642 10.7839 8.5292 10.0125 9.03674 10.146L10.9465 10.652L11.195 9.7817C10.3249 9.53302 9.4546 9.28434 8.58451 9.03585C8.37231 8.97556 8.24922 8.75453 8.30952 8.54233L8.62291 7.44565L7.06939 7.00167L6.75619 8.09778C6.69589 8.30979 6.47486 8.43288 6.26267 8.37258L5.21668 8.07378L4.21139 11.5925C4.06027 12.122 4.36828 12.6781 4.8979 12.8294L9.9149 14.2627C10.0123 13.9217 10.1096 13.5806 10.2072 13.2398ZM10.7854 8.83384L11.7981 9.12303C12.0103 9.18352 12.1334 9.40455 12.0729 9.61655L10.9232 13.6411L15.102 12.4475C15.6316 12.2961 15.9397 11.7398 15.7885 11.2104L14.7833 7.69164L13.7373 7.99044C13.5251 8.05093 13.304 7.92784 13.2437 7.71564L12.9307 6.61972L11.377 7.06351L11.6904 8.16019C11.7507 8.37239 11.6276 8.59341 11.4154 8.65371L10.7854 8.83384ZM16.163 7.29759L15.5516 7.47215L16.4952 10.7757L17.1066 10.6009L16.163 7.29759ZM4.44836 7.85429L3.83693 7.67954L2.8933 10.983L3.50472 11.1576L4.44836 7.85429Z" fill="#3C56AF"/>
</svg>
